<svg width="26" height="26" viewBox="0 0 26 26" fill="none" xmlns="http://www.w3.org/2000/svg">
<path d="M13.1413 6.10903C9.55437 6.10903 6.69602 9.02343 6.69602 12.5543C6.69602 16.1413 9.55437 18.9997 13.1413 18.9997C16.6722 18.9997 19.5866 16.1413 19.5866 12.5543C19.5866 9.02343 16.6722 6.10903 13.1413 6.10903ZM13.1413 16.7578C10.8434 16.7578 8.93787 14.9083 8.93787 12.5543C8.93787 10.2564 10.7874 8.40692 13.1413 8.40692C15.4392 8.40692 17.2887 10.2564 17.2887 12.5543C17.2887 14.9083 15.4392 16.7578 13.1413 16.7578ZM21.3241 5.88484C21.3241 5.04415 20.6515 4.3716 19.8108 4.3716C18.9701 4.3716 18.2976 5.04415 18.2976 5.88484C18.2976 6.72554 18.9701 7.39809 19.8108 7.39809C20.6515 7.39809 21.3241 6.72554 21.3241 5.88484ZM25.5836 7.39809C25.4715 5.38043 25.0231 3.58695 23.5659 2.12975C22.1087 0.672546 20.3152 0.224177 18.2976 0.112084C16.2239 -7.95722e-06 10.0027 -7.95722e-06 7.92903 0.112084C5.91137 0.224177 4.17394 0.672546 2.66069 2.12975C1.20349 3.58695 0.755122 5.38043 0.643029 7.39809C0.530937 9.4718 0.530937 15.6929 0.643029 17.7666C0.755122 19.7843 1.20349 21.5217 2.66069 23.035C4.17394 24.4922 5.91137 24.9406 7.92903 25.0526C10.0027 25.1647 16.2239 25.1647 18.2976 25.0526C20.3152 24.9406 22.1087 24.4922 23.5659 23.035C25.0231 21.5217 25.4715 19.7843 25.5836 17.7666C25.6957 15.6929 25.6957 9.4718 25.5836 7.39809ZM22.8934 19.9524C22.501 21.0734 21.6043 21.9141 20.5394 22.3624C18.858 23.035 14.9348 22.8668 13.1413 22.8668C11.2918 22.8668 7.36857 23.035 5.74323 22.3624C4.62231 21.9141 3.78162 21.0734 3.33325 19.9524C2.66069 18.3271 2.82883 14.4039 2.82883 12.5543C2.82883 10.7609 2.66069 6.83763 3.33325 5.15624C3.78162 4.09136 4.62231 3.25067 5.74323 2.8023C7.36857 2.12975 11.2918 2.29789 13.1413 2.29789C14.9348 2.29789 18.858 2.12975 20.5394 2.8023C21.6043 3.19463 22.445 4.09136 22.8934 5.15624C23.5659 6.83763 23.3978 10.7609 23.3978 12.5543C23.3978 14.4039 23.5659 18.3271 22.8934 19.9524Z" fill="#0663A6"/>
</svg>
