<svg width="29" height="25" viewBox="0 0 29 25" fill="none" xmlns="http://www.w3.org/2000/svg">
<path d="M26.0467 6.72552C27.1677 5.88482 28.1765 4.87599 28.9611 3.69902C27.9523 4.14739 26.7753 4.48367 25.5984 4.59576C26.8314 3.86716 27.7281 2.74624 28.1765 1.34508C27.0556 2.01764 25.7665 2.52205 24.4774 2.80228C23.3565 1.62531 21.8433 0.952759 20.1619 0.952759C16.9112 0.952759 14.277 3.58693 14.277 6.83761C14.277 7.28598 14.3331 7.73435 14.4452 8.18272C9.56916 7.90249 5.19755 5.54855 2.28315 2.01764C1.77873 2.85833 1.4985 3.86716 1.4985 4.98809C1.4985 7.00575 2.50733 8.79923 4.13267 9.8641C3.17989 9.80806 2.2271 9.58387 1.44246 9.1355V9.19155C1.44246 12.0499 3.46012 14.4038 6.15034 14.9643C5.70197 15.0764 5.14151 15.1885 4.63709 15.1885C4.24477 15.1885 3.90849 15.1324 3.51617 15.0764C4.24477 17.4303 6.43057 19.1117 9.00869 19.1678C6.99103 20.7371 4.46895 21.6899 1.72269 21.6899C1.21827 21.6899 0.769903 21.6338 0.321533 21.5778C2.89966 23.2591 5.9822 24.2119 9.34497 24.2119C20.1619 24.2119 26.0467 15.3006 26.0467 7.51016C26.0467 7.22993 26.0467 7.00575 26.0467 6.72552Z" fill="#0663A6"/>
</svg>
